<svg id="Capa_1" enable-background="new 0 0 512 512" height="512" viewBox="0 0 512 512" width="512" xmlns="http://www.w3.org/2000/svg"><g><path d="m271 221.859v-35.678h-30v35.678l-49.259-35.678h-51.143l100.402 72.721v42.05h-120.548v211.048h271.096v-211.048h-120.548v-42.05l100.402-72.721h-51.143zm30.524 169.617v30h-30.524v30.524h-30v-30.524h-30.524v-30h30.524v-30.523h30v30.523z"/><path d="m241 0c-12.617 7.417-25.855 23.334-36.944 45.114-16.007 31.437-25.941 71.214-27.96 111.067h64.904z"/><path d="m271 0v156.181h64.905c-2.019-39.853-11.954-79.63-27.96-111.067-11.09-21.78-24.328-37.697-36.945-45.114z"/><path d="m365.937 156.181h55.563c-1.866-66.141-42.709-122.693-100.322-147.461 4.745 6.865 9.267 14.467 13.501 22.782 18.059 35.469 29.19 80.189 31.258 124.679z"/><path d="m146.063 156.181c2.068-44.49 13.199-89.21 31.259-124.679 4.234-8.316 8.756-15.917 13.501-22.782-57.614 24.768-98.457 81.32-100.323 147.461z"/></g></svg>